name baseline.mot
datacolumns 19
datarows 26
range 18.754926 18.796598
endheader
time	ground_force1_vx	ground_force1_vy	ground_force1_vz	ground_force1_px	ground_force1_py	ground_force1_pz	ground_force2_vx	ground_force2_vy	ground_force2_vz	ground_force2_px	ground_force2_py	ground_force2_pz	ground_torque1_x	ground_torque1_y	ground_torque1_z	ground_torque2_x	ground_torque2_y	ground_torque2_z	
18.754926	11.709786	204.132742	-15.737868	0.261634	0.000000	0.094739	-86.298200	692.968115	-44.441033	-0.084719	0.000000	-0.088316	0.000000	-11.238841	0.000000	0.000000	-8.551398	0.000000	
18.756595	13.411180	211.427142	-15.182701	0.262982	0.000000	0.094980	-87.023199	688.756303	-43.821482	-0.085358	0.000000	-0.088147	0.000000	-11.263645	0.000000	0.000000	-8.719643	0.000000	
18.758263	15.157878	218.729944	-14.567097	0.264264	0.000000	0.095216	-87.739315	684.407493	-43.188677	-0.085991	0.000000	-0.087977	0.000000	-11.261955	0.000000	0.000000	-8.891157	0.000000	
18.759931	16.948093	226.028204	-13.890256	0.265482	0.000000	0.095447	-88.444683	679.918976	-42.542673	-0.086618	0.000000	-0.087804	0.000000	-11.232925	0.000000	0.000000	-9.065631	0.000000	
18.761592	18.778958	233.311534	-13.152413	0.266633	0.000000	0.095674	-89.137383	675.288159	-41.883544	-0.087240	0.000000	-0.087630	0.000000	-11.176140	0.000000	0.000000	-9.242738	0.000000	
18.763265	20.646696	240.571925	-12.354737	0.267719	0.000000	0.095896	-89.815444	670.512580	-41.211391	-0.087857	0.000000	-0.087455	0.000000	-11.091584	0.000000	0.000000	-9.422136	0.000000	
18.764925	22.546821	247.803436	-11.499184	0.268739	0.000000	0.096115	-90.476847	665.589927	-40.526338	-0.088469	0.000000	-0.087278	0.000000	-10.979599	0.000000	0.000000	-9.603468	0.000000	
18.766597	24.474347	255.001814	-10.588332	0.269693	0.000000	0.096329	-91.119529	660.518050	-39.828539	-0.089078	0.000000	-0.087100	0.000000	-10.840824	0.000000	0.000000	-9.786364	0.000000	
18.768264	26.423996	262.164075	-9.625222	0.270579	0.000000	0.096539	-91.741390	655.294980	-39.118174	-0.089684	0.000000	-0.086920	0.000000	-10.676134	0.000000	0.000000	-9.970438	0.000000	
18.769932	28.390386	269.288094	-8.613197	0.271398	0.000000	0.096745	-92.340299	649.918945	-38.395452	-0.090287	0.000000	-0.086740	0.000000	-10.486586	0.000000	0.000000	-10.155292	0.000000	
18.771592	30.368186	276.372237	-7.555764	0.272148	0.000000	0.096948	-92.914094	644.388387	-37.660613	-0.090888	0.000000	-0.086559	0.000000	-10.273357	0.000000	0.000000	-10.340515	0.000000	
18.773263	32.352243	283.415050	-6.456486	0.272830	0.000000	0.097146	-93.460595	638.701976	-36.913928	-0.091489	0.000000	-0.086377	0.000000	-10.037707	0.000000	0.000000	-10.525685	0.000000	
18.774923	34.337668	290.415023	-5.318891	0.273443	0.000000	0.097340	-93.977604	632.858626	-36.155701	-0.092089	0.000000	-0.086195	0.000000	-9.780933	0.000000	0.000000	-10.710366	0.000000	
18.776591	36.319895	297.370433	-4.146422	0.273986	0.000000	0.097529	-94.462911	626.857507	-35.386266	-0.092690	0.000000	-0.086013	0.000000	-9.504351	0.000000	0.000000	-10.894115	0.000000	
18.778267	38.294696	304.279256	-2.942396	0.274459	0.000000	0.097715	-94.914304	620.698059	-34.605993	-0.093293	0.000000	-0.085830	0.000000	-9.209276	0.000000	0.000000	-11.076476	0.000000	
18.779930	40.258187	311.139152	-1.710002	0.274860	0.000000	0.097897	-95.329571	614.379998	-33.815285	-0.093898	0.000000	-0.085647	0.000000	-8.897015	0.000000	0.000000	-11.256986	0.000000	
18.781595	42.206801	317.947503	-0.452306	0.275191	0.000000	0.098074	-95.706509	607.903328	-33.014581	-0.094507	0.000000	-0.085464	0.000000	-8.568864	0.000000	0.000000	-11.435173	0.000000	
18.783259	44.137257	324.701489	0.827731	0.275450	0.000000	0.098247	-96.042929	601.268343	-32.204354	-0.095121	0.000000	-0.085282	0.000000	-8.226116	0.000000	0.000000	-11.610558	0.000000	
18.784924	46.046514	331.398201	2.127224	0.275637	0.000000	0.098415	-96.336661	594.475631	-31.385114	-0.095740	0.000000	-0.085100	0.000000	-7.870066	0.000000	0.000000	-11.782654	0.000000	
18.786591	47.931733	338.034756	3.443333	0.275752	0.000000	0.098579	-96.585566	587.526072	-30.557410	-0.096365	0.000000	-0.084919	0.000000	-7.502019	0.000000	0.000000	-11.950970	0.000000	
18.788265	49.790232	344.608422	4.773237	0.275795	0.000000	0.098738	-96.787538	580.420843	-29.721827	-0.096998	0.000000	-0.084738	0.000000	-7.123299	0.000000	0.000000	-12.115011	0.000000	
18.789931	51.619456	351.116731	6.114108	0.275765	0.000000	0.098893	-96.940514	573.161407	-28.878989	-0.097640	0.000000	-0.084558	0.000000	-6.735256	0.000000	0.000000	-12.274277	0.000000	
18.791596	53.416943	357.557577	7.463093	0.275664	0.000000	0.099043	-97.042483	565.749516	-28.029560	-0.098291	0.000000	-0.084379	0.000000	-6.339270	0.000000	0.000000	-12.428267	0.000000	
18.793257	55.180316	363.929292	8.817303	0.275491	0.000000	0.099188	-97.091490	558.187209	-27.174242	-0.098954	0.000000	-0.084201	0.000000	-5.936751	0.000000	0.000000	-12.576478	0.000000	
18.794936	56.907267	370.230702	10.173810	0.275247	0.000000	0.099328	-97.085653	550.476806	-26.313778	-0.099628	0.000000	-0.084025	0.000000	-5.529137	0.000000	0.000000	-12.718409	0.000000	
18.796598	58.595558	376.461154	11.529655	0.274932	0.000000	0.099463	-97.023164	542.620911	-25.448948	-0.100315	0.000000	-0.083850	0.000000	-5.117892	0.000000	0.000000	-12.853560	0.000000	
